<?xml version="1.0" standalone="no"?>
<!DOCTYPE svg PUBLIC "-//W3C//DTD SVG 20010904//EN"
 "http://www.w3.org/TR/2001/REC-SVG-20010904/DTD/svg10.dtd">
<svg version="1.0" xmlns="http://www.w3.org/2000/svg"
 width="96.000000pt" height="96.000000pt" viewBox="0 0 96.000000 96.000000"
 preserveAspectRatio="xMidYMid meet">

<g transform="translate(0.000000,96.000000) scale(0.100000,-0.100000)"
fill="#000000" stroke="none">
<path d="M279 885 c-68 -37 -80 -145 -30 -268 17 -43 31 -88 31 -101 0 -12
-16 -55 -36 -96 -47 -95 -50 -152 -13 -230 36 -78 83 -127 130 -140 56 -15 62
-6 34 50 -75 147 -47 271 70 315 37 15 47 15 71 3 72 -35 86 -117 40 -251 -31
-92 -32 -104 -7 -112 73 -23 170 118 179 259 3 54 -1 88 -18 143 l-22 72 21
43 c12 24 32 63 46 87 29 51 32 108 9 156 -30 64 -85 82 -180 60 -85 -20 -108
-19 -177 5 -66 23 -112 25 -148 5z m141 -25 c60 -24 109 -25 186 -5 156 41
223 -75 130 -225 -48 -77 -51 -102 -27 -180 35 -111 23 -213 -38 -304 -62 -93
-122 -99 -83 -9 50 119 49 219 -4 274 -36 37 -79 45 -132 24 -112 -45 -151
-179 -91 -314 23 -52 23 -51 4 -51 -26 0 -81 58 -110 117 -40 81 -38 129 8
222 45 91 46 122 7 211 -47 108 -40 200 20 247 23 18 73 16 130 -7z"/>
</g>
</svg>
