<svg width="80" height="115" viewBox="0 0 80 115" fill="none" xmlns="http://www.w3.org/2000/svg">
<path d="M9.77149 1.83089C0.70482 6.76423 -0.89518 21.1642 5.77149 37.5642C8.03815 43.2976 9.90482 49.2976 9.90482 51.0309C9.90482 52.6309 7.77149 58.3642 5.10482 63.8309C-1.16185 76.4976 -1.56185 84.0976 3.37149 94.4976C8.17149 104.898 14.4382 111.431 20.7048 113.164C28.1715 115.164 28.9715 113.964 25.2382 106.498C15.2382 86.8976 18.9715 70.3642 34.5715 64.4976C39.5048 62.4976 40.8382 62.4976 44.0382 64.0976C53.6382 68.7642 55.5048 79.6976 49.3715 97.5642C45.2382 109.831 45.1048 111.431 48.4382 112.498C58.1715 115.564 71.1048 96.7642 72.3048 77.9642C72.7048 70.7642 72.1715 66.2309 69.9048 58.8976L68.1715 48.3309L69.7715 43.5642C71.3715 40.3642 74.0382 35.1642 75.9048 31.9642C79.7715 25.1642 80.1715 17.5642 77.1048 11.1642C73.1048 2.6309 65.7715 0.230897 53.1048 3.16423C41.7715 5.8309 38.7048 5.69757 29.5048 2.49757C20.7048 -0.569101 14.5715 -0.835772 9.77149 1.83089ZM28.5715 5.16423C36.5715 8.36423 43.1048 8.49757 53.3715 5.8309C74.1715 0.364235 83.1048 15.8309 70.7048 35.8309C64.3048 46.0976 63.9048 49.4309 67.1048 59.8309C71.7715 74.6309 70.1715 88.2309 62.0382 100.364C53.7715 112.764 45.7715 113.564 50.9715 101.564C57.6382 85.6976 57.5048 72.3642 50.4382 65.0309C45.6382 60.0976 39.9048 59.0309 32.8382 61.8309C17.9048 67.8309 12.7048 85.6976 20.7048 103.698C23.7715 110.631 23.7715 110.498 21.2382 110.498C17.7715 110.498 10.4382 102.764 6.57149 94.8976C1.23815 84.0976 1.50482 77.6976 7.63815 65.2976C13.6382 53.1642 13.7715 49.0309 8.57149 37.1642C2.30482 22.7642 3.23815 10.4976 11.2382 4.2309C14.3048 1.8309 20.9715 2.09756 28.5715 5.16423Z" fill="black"/>
<path d="M28.5715 5.16423C36.5715 8.36423 43.1048 8.49757 53.3715 5.8309C74.1715 0.364235 83.1048 15.8309 70.7048 35.8309C64.3048 46.0976 63.9048 49.4309 67.1048 59.8309C71.7715 74.6309 70.1715 88.2309 62.0382 100.364C53.7715 112.764 45.7715 113.564 50.9715 101.564C57.6382 85.6976 57.5048 72.3642 50.4382 65.0309C45.6382 60.0976 39.9048 59.0309 32.8382 61.8309C17.9048 67.8309 12.7048 85.6976 20.7048 103.698C23.7715 110.631 23.7715 110.498 21.2382 110.498C17.7715 110.498 10.4382 102.764 6.57149 94.8976C1.23815 84.0976 1.50482 77.6976 7.63815 65.2976C13.6382 53.1642 13.7715 49.0309 8.57149 37.1642C2.30482 22.7642 3.23815 10.4976 11.2382 4.2309C14.3048 1.8309 20.9715 2.09756 28.5715 5.16423Z" fill="white"/>
<path d="M25.1123 113.517C26.1546 113.568 26.5843 113.356 26.7578 113.101C26.9512 112.815 27.0061 112.236 26.6748 111.111C26.355 110.026 25.7234 108.586 24.793 106.725C19.7597 96.8595 18.1497 87.7047 19.8164 80.2383C21.4885 72.7482 26.4464 67.0188 34.3955 64.0294V64.0303C36.852 63.0349 38.4905 62.5019 39.9365 62.4483C41.4128 62.3937 42.6369 62.8394 44.2559 63.6485L44.2568 63.6475C49.2096 66.0551 52.1738 70.0974 53.0986 75.8008C53.9891 81.2922 52.9883 88.307 50.127 96.8907L49.8447 97.7266C48.8118 100.792 48.0322 103.182 47.4941 105.061C46.9543 106.946 46.6666 108.286 46.6035 109.263C46.5408 110.235 46.7051 110.774 46.9873 111.128C47.2812 111.497 47.7737 111.761 48.5879 112.022L48.5889 112.021C50.837 112.729 53.3168 112.192 55.8398 110.615C58.364 109.038 60.8848 106.444 63.1602 103.147C67.7103 96.552 71.2116 87.239 71.8057 77.9327C72.2019 70.7952 71.6758 66.3213 69.4268 59.045L69.417 59.0128L69.4111 58.9786L67.6777 48.4122L67.6582 48.2891L67.6973 48.1719L69.2979 43.4053L69.3086 43.3721L69.3242 43.3409C70.9233 40.1427 73.5943 34.9337 75.4697 31.7178V31.7169C79.2634 25.0451 79.6434 17.6181 76.6543 11.3799L76.6523 11.376C74.6995 7.2101 71.9607 4.58808 68.1973 3.33893C64.407 2.08089 59.5118 2.19363 53.2168 3.65143C47.5506 4.98458 43.8947 5.63241 40.4902 5.53033C37.0767 5.42793 33.9496 4.57282 29.3408 2.96979H29.3398C20.5795 -0.0829981 14.6228 -0.292266 10.0146 2.26764L10.0107 2.27057L9.6084 2.49811C5.50302 4.92716 3.03483 9.48494 2.36816 15.4532C1.67986 21.6154 2.9231 29.2303 6.23438 37.376L6.23633 37.3799C7.37384 40.2572 8.41178 43.2034 9.16602 45.6505C9.54302 46.8736 9.85058 47.9772 10.0645 48.8878C10.2752 49.7851 10.4053 50.5349 10.4053 51.0313C10.4052 51.5081 10.2524 52.2263 10.0107 53.0743C9.76422 53.9392 9.40885 54.9903 8.97266 56.1563C8.10003 58.4889 6.89435 61.3035 5.55469 64.0499L5.55273 64.0528C2.43276 70.3592 0.798373 75.3556 0.537109 80.0421C0.292713 84.4259 1.24778 88.5809 3.38086 93.3262L3.82324 94.2833L3.8252 94.2881C8.60289 104.64 14.7837 111.008 20.8379 112.683L20.8369 112.684C22.6981 113.182 24.1034 113.467 25.1123 113.517ZM21.2383 110.997C20.2136 110.997 18.9993 110.439 17.7451 109.578C16.4716 108.704 15.0822 107.465 13.6914 105.99C10.91 103.04 8.08003 99.1004 6.12305 95.1192C3.43809 89.6822 2.1337 85.2953 2.30469 80.6788C2.47535 76.0724 4.11381 71.2964 7.19043 65.0762C10.1881 59.0142 11.6752 55.0313 11.8047 51.1143C11.934 47.2013 10.7096 43.2902 8.11328 37.3653V37.3633C1.81839 22.8983 2.65135 10.3217 10.9297 3.83698C12.6001 2.52971 15.1772 1.99592 18.2295 2.1485C21.2973 2.30189 24.919 3.15229 28.7578 4.70123C36.6352 7.85199 43.056 7.99351 53.2461 5.34674V5.34772C63.7551 2.58615 71.4774 5.07031 74.9209 11.0303C78.3391 16.9471 77.3717 26.0273 71.1299 36.0948L71.1289 36.0958C67.9303 41.2269 66.2833 44.5495 65.7998 47.8536C65.3173 51.1507 65.984 54.4912 67.582 59.6846C72.2148 74.3804 70.7274 87.942 62.834 100.066L62.4531 100.643C60.369 103.769 58.2926 106.178 56.4229 107.844C54.5726 109.492 52.8606 110.469 51.5068 110.611C50.811 110.684 50.1676 110.539 49.6758 110.101C49.1914 109.669 48.9284 109.019 48.8467 108.234C48.6952 106.78 49.1419 104.669 50.2764 101.923L50.5127 101.365C57.1586 85.545 56.9234 72.4839 50.0801 65.3799C47.7395 62.9743 45.1958 61.5341 42.3984 61.0225C39.772 60.5423 36.88 60.8726 33.6689 62.0489L33.0225 62.296C18.4406 68.1563 13.2356 85.6594 21.1621 103.494V103.495C21.9268 105.224 22.5061 106.525 22.9014 107.496C23.2886 108.448 23.5298 109.152 23.5703 109.657C23.5913 109.92 23.5644 110.195 23.418 110.435C23.2652 110.684 23.0317 110.817 22.8037 110.888C22.5854 110.956 22.3354 110.979 22.0889 110.989C21.839 111 21.5473 110.997 21.2383 110.997ZM21.2383 109.997C21.5624 109.997 21.8249 110 22.0479 109.99C22.274 109.981 22.4169 109.961 22.5068 109.933C22.5395 109.923 22.5566 109.913 22.5654 109.907C22.5706 109.89 22.5815 109.841 22.5732 109.737C22.547 109.41 22.3706 108.846 21.9746 107.873C21.7806 107.396 21.5411 106.838 21.2539 106.181L20.2471 103.899C12.175 85.7358 17.369 67.5078 32.6514 61.3672L32.6543 61.3663C36.25 59.9416 39.5465 59.4848 42.5781 60.0391C45.614 60.5943 48.3375 62.155 50.7969 64.6827L50.7979 64.6837C58.0852 72.246 58.1171 85.8488 51.4326 101.758L51.4307 101.763L51.1982 102.312C50.0872 105.003 49.7161 106.925 49.8418 108.131C49.908 108.765 50.1048 109.144 50.3408 109.355C50.5692 109.558 50.9068 109.669 51.4023 109.617C52.4319 109.509 53.9456 108.711 55.7578 107.097C57.5502 105.5 59.5733 103.16 61.6221 100.087L61.623 100.086C69.6637 88.0909 71.2534 74.651 66.6279 59.9815L66.627 59.9776C65.025 54.7713 64.2931 51.2441 64.8105 47.7081C65.3271 44.1791 67.0793 40.7015 70.2803 35.5665V35.5674C76.4382 25.6353 77.2038 16.9812 74.0557 11.5313C70.9326 6.12533 63.7888 3.61028 53.499 6.31451H53.4971C43.1542 9.00097 36.5079 8.87685 28.3857 5.62799H28.3848C24.6237 4.11037 21.1118 3.29315 18.1797 3.14655C15.2322 2.9992 12.9421 3.53239 11.5459 4.62506C3.82485 10.6738 2.79212 22.6304 9.03027 36.9649L9.0293 36.9659C11.6324 42.9065 12.942 46.9944 12.8047 51.1475C12.6675 55.2972 11.0882 59.4483 8.08594 65.5196C5.0295 71.699 3.46745 76.3226 3.30469 80.7159C3.14234 85.0992 4.37128 89.3131 7.01953 94.6758L7.02051 94.6768C8.93017 98.562 11.7006 102.422 14.4189 105.305C15.778 106.746 17.1134 107.932 18.3105 108.754C19.5272 109.589 20.5297 109.997 21.2383 109.997Z" stroke="black"/>
<ellipse cx="30.0715" cy="7.8309" rx="4.5" ry="4" fill="#020202"/>
<path d="M43.5715 21.3309C43.5715 23.2639 41.5568 24.8309 39.0715 24.8309C36.5862 24.8309 34.5715 23.2639 34.5715 21.3309C34.5715 19.3979 36.5862 15.8309 39.0715 15.8309C41.5568 15.8309 43.5715 19.3979 43.5715 21.3309Z" fill="#020202"/>
<path d="M20.5715 14.3309C20.5715 16.8162 18.7806 18.8309 16.5715 18.8309C14.3624 18.8309 11.0715 15.3162 11.0715 12.8309C11.0715 10.3456 14.3624 9.8309 16.5715 9.8309C18.7806 9.8309 20.5715 11.8456 20.5715 14.3309Z" fill="#020202"/>
</svg>
